<?xml version="1.0" encoding="UTF-8"?>
<svg width="63px" height="35px" viewBox="0 0 63 35" version="1.1" xmlns="http://www.w3.org/2000/svg" xmlns:xlink="http://www.w3.org/1999/xlink">
    <!-- Generator: Sketch 64 (93537) - https://sketch.com -->
    <title>Group 3</title>
    <desc>Created with Sketch.</desc>
    <defs>
        <path d="M16.9258554,29.042576 L55.160566,29.042576 C56.1715346,29.0425355 56.9920886,28.2083413 56.9920886,27.1808721 C56.9920886,26.1533828 56.1715346,25.3192087 55.160566,25.3191683 L16.7793137,25.3191683 L16.7793137,25.3177729 C12.6009352,25.2382545 9.23290339,21.7657583 9.23290339,17.5000404 C9.23290339,13.2343832 12.6009352,9.76182634 16.7793137,9.68234845 L16.7793137,9.68093282 L63,9.68093282 L63,15.6383568 L16.9258554,15.6383568 L16.9258554,19.3617443 L55.3070082,19.3617443 L55.3070082,19.3631397 C59.4853867,19.4426783 62.8535578,22.9151542 62.8535578,27.1808721 C62.8535578,31.44659 59.4853867,34.919066 55.3070082,34.9986046 L55.3070082,35 L16.7793137,35 L16.7793137,34.9968856 C7.47889966,34.7603529 0,27.0121889 0,17.5025886 C0,7.99308938 7.47889966,0.244905152 16.7793137,0.0082915865 L16.7793137,0 L63,0 L63,5.95760601 L16.9258554,5.95760601 L16.9258554,5.96387526 C10.7927518,6.12121317 5.86129015,11.2312573 5.86129015,17.5025886 C5.86129015,23.7739604 10.7927518,28.8838831 16.9258554,29.0413828 L16.9258554,29.042576 Z M16.9258554,15.6383568 C15.9149067,15.6383568 15.0941935,16.4725713 15.0941935,17.5000404 C15.0941935,18.5275298 15.9149067,19.3617038 16.9258554,19.3617443 L16.9258554,15.6383568 Z" id="path-1"></path>
        <linearGradient x1="17.4155955%" y1="37.0503481%" x2="92.6024066%" y2="62.2969396%" id="linearGradient-3">
            <stop stop-color="#545454" offset="0%"></stop>
            <stop stop-color="#2A2A2A" offset="100%"></stop>
        </linearGradient>
    </defs>
    <g id="Login" stroke="none" stroke-width="1" fill="none" fill-rule="evenodd">
        <g id="Mobile-Menu" transform="translate(-20.000000, -60.000000)">
            <g id="Group">
                <g id="Group-3" transform="translate(20.000000, 60.000000)">
                    <mask id="mask-2" fill="white">
                        <use xlink:href="#path-1"></use>
                    </mask>
                    <g id="Clip-2"></g>
                    <path d="M16.9258554,29.042576 L55.160566,29.042576 C56.1715346,29.0425355 56.9920886,28.2083413 56.9920886,27.1808721 C56.9920886,26.1533828 56.1715346,25.3192087 55.160566,25.3191683 L16.7793137,25.3191683 L16.7793137,25.3177729 C12.6009352,25.2382545 9.23290339,21.7657583 9.23290339,17.5000404 C9.23290339,13.2343832 12.6009352,9.76182634 16.7793137,9.68234845 L16.7793137,9.68093282 L63,9.68093282 L63,15.6383568 L16.9258554,15.6383568 L16.9258554,19.3617443 L55.3070082,19.3617443 L55.3070082,19.3631397 C59.4853867,19.4426783 62.8535578,22.9151542 62.8535578,27.1808721 C62.8535578,31.44659 59.4853867,34.919066 55.3070082,34.9986046 L55.3070082,35 L16.7793137,35 L16.7793137,34.9968856 C7.47889966,34.7603529 0,27.0121889 0,17.5025886 C0,7.99308938 7.47889966,0.244905152 16.7793137,0.0082915865 L16.7793137,0 L63,0 L63,5.95760601 L16.9258554,5.95760601 L16.9258554,5.96387526 C10.7927518,6.12121317 5.86129015,11.2312573 5.86129015,17.5025886 C5.86129015,23.7739604 10.7927518,28.8838831 16.9258554,29.0413828 L16.9258554,29.042576 Z M16.9258554,15.6383568 C15.9149067,15.6383568 15.0941935,16.4725713 15.0941935,17.5000404 C15.0941935,18.5275298 15.9149067,19.3617038 16.9258554,19.3617443 L16.9258554,15.6383568 Z" id="Fill-1" fill="url(#linearGradient-3)" mask="url(#mask-2)"></path>
                </g>
            </g>
        </g>
    </g>
</svg>