<?xml version="1.0" encoding="UTF-8"?>
<svg width="261px" height="118px" viewBox="0 0 261 118" version="1.1" xmlns="http://www.w3.org/2000/svg" xmlns:xlink="http://www.w3.org/1999/xlink">
    <!-- Generator: Sketch 64 (93537) - https://sketch.com -->
    <title>Group</title>
    <desc>Created with Sketch.</desc>
    <defs>
        <path d="M33.5830465,57.2553641 L109.445567,57.2553641 C111.451458,57.2552844 113.079541,55.6107299 113.079541,53.5851479 C113.079541,51.5595261 111.451458,49.9150115 109.445567,49.9149318 L33.2922891,49.9149318 L33.2922891,49.9121808 C25.0018555,49.7554161 18.3192528,42.9096379 18.3192528,34.5000797 C18.3192528,26.0906412 25.0018555,19.2447434 33.2922891,19.0880584 L33.2922891,19.0852676 L125,19.0852676 L125,30.8299034 L33.5830465,30.8299034 L33.5830465,38.1702959 L109.736127,38.1702959 L109.736127,38.1730469 C118.026561,38.3298514 124.70944,45.1755898 124.70944,53.5851479 C124.70944,61.9947061 118.026561,68.8404445 109.736127,68.997249 L109.736127,69 L33.2922891,69 L33.2922891,68.9938602 C14.8390866,68.5275529 0,53.252601 0,34.5051032 C0,15.7578048 14.8390866,0.482813015 33.2922891,0.0163462705 L33.2922891,0 L125,0 L125,11.7449947 L33.5830465,11.7449947 L33.5830465,11.7573541 C21.4141901,12.0675345 11.6295439,22.1416215 11.6295439,34.5051032 C11.6295439,46.8686647 21.4141901,56.9425124 33.5830465,57.2530118 L33.5830465,57.2553641 Z M33.5830465,30.8299034 C31.5771958,30.8299034 29.9487967,32.4744977 29.9487967,34.5000797 C29.9487967,36.5257016 31.5771958,38.1702162 33.5830465,38.1702959 L33.5830465,30.8299034 Z" id="path-1"></path>
        <linearGradient x1="17.4155955%" y1="37.2155732%" x2="92.6024066%" y2="62.1400424%" id="linearGradient-3">
            <stop stop-color="#545454" offset="0%"></stop>
            <stop stop-color="#2A2A2A" offset="100%"></stop>
        </linearGradient>
    </defs>
    <g id="Login" stroke="none" stroke-width="1" fill="none" fill-rule="evenodd">
        <g id="Login-Mobile" transform="translate(-20.000000, -153.000000)">
            <g id="Group" transform="translate(20.000000, 153.000000)">
                <g id="Group-3">
                    <mask id="mask-2" fill="white">
                        <use xlink:href="#path-1"></use>
                    </mask>
                    <g id="Clip-2"></g>
                    <path d="M33.5830465,57.2553641 L109.445567,57.2553641 C111.451458,57.2552844 113.079541,55.6107299 113.079541,53.5851479 C113.079541,51.5595261 111.451458,49.9150115 109.445567,49.9149318 L33.2922891,49.9149318 L33.2922891,49.9121808 C25.0018555,49.7554161 18.3192528,42.9096379 18.3192528,34.5000797 C18.3192528,26.0906412 25.0018555,19.2447434 33.2922891,19.0880584 L33.2922891,19.0852676 L125,19.0852676 L125,30.8299034 L33.5830465,30.8299034 L33.5830465,38.1702959 L109.736127,38.1702959 L109.736127,38.1730469 C118.026561,38.3298514 124.70944,45.1755898 124.70944,53.5851479 C124.70944,61.9947061 118.026561,68.8404445 109.736127,68.997249 L109.736127,69 L33.2922891,69 L33.2922891,68.9938602 C14.8390866,68.5275529 0,53.252601 0,34.5051032 C0,15.7578048 14.8390866,0.482813015 33.2922891,0.0163462705 L33.2922891,0 L125,0 L125,11.7449947 L33.5830465,11.7449947 L33.5830465,11.7573541 C21.4141901,12.0675345 11.6295439,22.1416215 11.6295439,34.5051032 C11.6295439,46.8686647 21.4141901,56.9425124 33.5830465,57.2530118 L33.5830465,57.2553641 Z M33.5830465,30.8299034 C31.5771958,30.8299034 29.9487967,32.4744977 29.9487967,34.5000797 C29.9487967,36.5257016 31.5771958,38.1702162 33.5830465,38.1702959 L33.5830465,30.8299034 Z" id="Fill-1" fill="url(#linearGradient-3)" mask="url(#mask-2)"></path>
                </g>
                <g id="Logo-Text" transform="translate(0.000000, 88.000000)" fill="#383838" font-family="Galvji" font-size="30" font-weight="normal">
                    <text id="COMANDASMART">
                        <tspan x="0" y="29">COMANDA</tspan>
                        <tspan x="151.831055" y="29" font-family="Galvji-Bold, Galvji" font-weight="bold">SMART</tspan>
                    </text>
                </g>
            </g>
        </g>
    </g>
</svg>