<?xml version="1.0" standalone="no"?>
<!DOCTYPE svg PUBLIC "-//W3C//DTD SVG 20010904//EN"
 "http://www.w3.org/TR/2001/REC-SVG-20010904/DTD/svg10.dtd">
<svg version="1.0" xmlns="http://www.w3.org/2000/svg"
 width="1800.000000pt" height="1800.000000pt" viewBox="0 0 1800.000000 1800.000000"
 preserveAspectRatio="xMidYMid meet">
<metadata>
Created by potrace 1.11, written by Peter Selinger 2001-2013
</metadata>
<g transform="translate(0.000000,1800.000000) scale(0.100000,-0.100000)"
fill="#000000" stroke="none">
<path d="M5790 12623 c-1080 -64 -2085 -623 -2718 -1512 -116 -163 -190 -289
-292 -496 -193 -392 -285 -703 -352 -1185 -20 -147 -17 -681 5 -840 24 -171
43 -273 78 -417 155 -640 479 -1213 954 -1689 524 -525 1170 -865 1897 -998
319 -59 52 -56 4584 -56 4508 0 4223 -4 4424 51 562 153 998 592 1141 1152 66
261 66 545 0 804 -100 387 -335 716 -674 940 -166 109 -347 185 -564 235 l-98
23 -4155 5 c-3846 5 -4158 6 -4196 22 -181 73 -287 250 -255 429 30 170 160
294 337 320 47 7 1621 8 4877 3 l4807 -7 0 617 0 616 -4822 0 c-2817 0 -4869
-4 -4933 -9 -227 -19 -398 -67 -600 -167 -685 -339 -1031 -1098 -840 -1844 82
-322 291 -644 550 -845 168 -131 298 -202 480 -263 138 -47 239 -69 374 -82
58 -6 1711 -10 4138 -10 2954 0 4056 -3 4095 -11 119 -25 218 -106 272 -219
27 -58 31 -75 31 -155 0 -77 -4 -99 -27 -148 -37 -79 -78 -128 -141 -170 -111
-74 300 -68 -4292 -64 -3828 2 -4137 4 -4225 19 -545 97 -982 325 -1350 704
-348 359 -564 792 -647 1299 -25 156 -25 544 0 705 25 159 78 359 131 493 128
330 299 592 545 837 371 370 804 588 1342 677 97 16 420 18 5012 20 l4907 3 0
610 0 610 -4872 -2 c-2680 -1 -4898 -3 -4928 -5z"/>
</g>
</svg>
